
<svg width="1180" height="610" viewBox="0 0 1180 610" xmlns="http://www.w3.org/2000/svg">
<defs>
  <clipPath id="cardClipD"><rect x="0" y="0" width="1180" height="610" rx="28"/></clipPath>
  <clipPath id="leftClipD"><rect x="34" y="34" width="428" height="542" rx="20"/></clipPath>
  <clipPath id="rightClipD"><rect x="486" y="34" width="660" height="542" rx="20"/></clipPath>

  <linearGradient id="bgGradD" x1="0%" y1="0%" x2="100%" y2="100%">
    <stop offset="0%" stop-color="#030712"/>
    <stop offset="100%" stop-color="#050914"/>
  </linearGradient>

  <linearGradient id="accentD" x1="0%" y1="0%" x2="100%" y2="0%">
    <stop offset="0%" stop-color="#7C3AED"/>
    <stop offset="50%" stop-color="#22D3EE"/>
    <stop offset="100%" stop-color="#10B981"/>
    <animate attributeName="x1" values="0%;100%;0%" dur="8s" repeatCount="indefinite"/>
    <animate attributeName="x2" values="100%;200%;100%" dur="8s" repeatCount="indefinite"/>
  </linearGradient>

  <linearGradient id="asciiGradD" x1="0%" y1="0%" x2="100%" y2="100%" gradientUnits="objectBoundingBox">
    <stop offset="0%" stop-color="#22D3EE"/>
    <stop offset="50%" stop-color="#7C3AED"/>
    <stop offset="100%" stop-color="#22D3EE"/>
    <animateTransform attributeName="gradientTransform" type="rotate" values="0 0.5 0.5;360 0.5 0.5" dur="10s" repeatCount="indefinite"/>
  </linearGradient>

  <radialGradient id="glowPurpleD" cx="50%" cy="50%" r="50%">
    <stop offset="0%" stop-color="#7C3AED" stop-opacity="0.35"/>
    <stop offset="100%" stop-color="#7C3AED" stop-opacity="0"/>
  </radialGradient>
  <radialGradient id="glowCyanD" cx="50%" cy="50%" r="50%">
    <stop offset="0%" stop-color="#22D3EE" stop-opacity="0.3"/>
    <stop offset="100%" stop-color="#22D3EE" stop-opacity="0"/>
  </radialGradient>
  <radialGradient id="glowEmeraldD" cx="50%" cy="50%" r="50%">
    <stop offset="0%" stop-color="#10B981" stop-opacity="0.25"/>
    <stop offset="100%" stop-color="#10B981" stop-opacity="0"/>
  </radialGradient>

  <filter id="softBlurD" x="-50%" y="-50%" width="200%" height="200%">
    <feGaussianBlur stdDeviation="18"/>
  </filter>
  <filter id="glowD" x="-100%" y="-100%" width="300%" height="300%">
    <feGaussianBlur stdDeviation="3.2" result="b"/>
    <feMerge><feMergeNode in="b"/><feMergeNode in="SourceGraphic"/></feMerge>
  </filter>
  <filter id="noiseD">
    <feTurbulence type="fractalNoise" baseFrequency="0.85" numOctaves="2" stitchTiles="stitch" result="n"/>
    <feColorMatrix in="n" type="matrix" values="0 0 0 0 1  0 0 0 0 1  0 0 0 0 1  0 0 0 0.02 0"/>
  </filter>

  <style>
    .mono{font-family:'SF Mono','Fira Code',Consolas,monospace;}
    .pill{transition:all .2s ease;}
    .pill:hover rect{filter:url(#glowD);}
    .pill:hover{transform:translateY(-2px) scale(1.05);}
    .social:hover circle{filter:url(#glowD);}
  </style>
</defs>

<g clip-path="url(#cardClipD)">
  <rect width="1180" height="610" fill="url(#bgGradD)"/>
  <rect width="1180" height="610" filter="url(#noiseD)" opacity="0.5"/>

  <circle cx="140" cy="90" r="220" fill="url(#glowPurpleD)">
    <animateTransform attributeName="transform" type="translate" values="0 0;30 20;0 0" dur="9s" repeatCount="indefinite"/>
  </circle>
  <circle cx="1040" cy="120" r="260" fill="url(#glowCyanD)">
    <animateTransform attributeName="transform" type="translate" values="0 0;-25 25;0 0" dur="11s" repeatCount="indefinite"/>
  </circle>
  <circle cx="900" cy="560" r="220" fill="url(#glowEmeraldD)">
    <animateTransform attributeName="transform" type="translate" values="0 0;20 -20;0 0" dur="10s" repeatCount="indefinite"/>
  </circle>

  <g opacity="0.55">
    <circle cx="90" cy="470" r="2" fill="#22D3EE"><animate attributeName="cy" values="470;430;470" dur="6s" repeatCount="indefinite"/><animate attributeName="opacity" values="0.2;0.8;0.2" dur="6s" repeatCount="indefinite"/></circle>
    <circle cx="410" cy="120" r="1.6" fill="#7C3AED"><animate attributeName="cy" values="120;80;120" dur="7s" repeatCount="indefinite"/><animate attributeName="opacity" values="0.2;0.9;0.2" dur="7s" repeatCount="indefinite"/></circle>
    <circle cx="700" cy="520" r="2" fill="#10B981"><animate attributeName="cy" values="520;480;520" dur="8s" repeatCount="indefinite"/><animate attributeName="opacity" values="0.2;0.8;0.2" dur="8s" repeatCount="indefinite"/></circle>
    <circle cx="1050" cy="200" r="1.8" fill="#22D3EE"><animate attributeName="cx" values="1050;1010;1050" dur="9s" repeatCount="indefinite"/><animate attributeName="opacity" values="0.2;0.9;0.2" dur="9s" repeatCount="indefinite"/></circle>
    <circle cx="600" cy="90" r="1.6" fill="#A855F7"><animate attributeName="cy" values="90;60;90" dur="6.5s" repeatCount="indefinite"/><animate attributeName="opacity" values="0.2;0.8;0.2" dur="6.5s" repeatCount="indefinite"/></circle>
  </g>

  <!-- LEFT PANEL -->
  <g>
    <rect x="34" y="34" width="428" height="542" rx="20" fill="#0F172A" opacity="0.55"/>
    <rect x="34" y="34" width="428" height="542" rx="20" fill="none" stroke="rgba(255,255,255,.08)" stroke-width="1"/>
    <rect x="34" y="34" width="428" height="542" rx="20" fill="none" stroke="url(#accentD)" stroke-width="1.4" opacity="0.6">
      <animate attributeName="opacity" values="0.25;0.7;0.25" dur="4s" repeatCount="indefinite"/>
    </rect>

    <g clip-path="url(#leftClipD)">
      <!-- glass reflection -->
      <rect x="34" y="34" width="428" height="120" fill="white" opacity="0.03"/>

      <g transform="translate(60,80)">
        <animateTransform attributeName="transform" type="translate" values="60,80;60,72;60,80" dur="6s" repeatCount="indefinite" additive="sum"/>
        <text class="mono" font-size="11.5" fill="url(#asciiGradD)" xml:space="preserve">
<tspan x="0" y="0" opacity="0"><animate attributeName="opacity" to="1" begin="0.1s" dur="0.3s" fill="freeze"/>        .:=+*#%@%#*+=:.</tspan>
<tspan x="0" y="16" opacity="0"><animate attributeName="opacity" to="1" begin="0.3s" dur="0.3s" fill="freeze"/>      :+#@@@@@@@@@@@@@@#+:</tspan>
<tspan x="0" y="32" opacity="0"><animate attributeName="opacity" to="1" begin="0.5s" dur="0.3s" fill="freeze"/>    -#@@@@@@@@@@@@@@@@@@@@#-</tspan>
<tspan x="0" y="48" opacity="0"><animate attributeName="opacity" to="1" begin="0.7s" dur="0.3s" fill="freeze"/>   +@@@@@@#*+=--=+*#@@@@@@@+</tspan>
<tspan x="0" y="64" opacity="0"><animate attributeName="opacity" to="1" begin="0.9s" dur="0.3s" fill="freeze"/>  *@@@@#-              -#@@@@*</tspan>
<tspan x="0" y="80" opacity="0"><animate attributeName="opacity" to="1" begin="1.1s" dur="0.3s" fill="freeze"/> =@@@@=    .:=+**+=:.    =@@@@=</tspan>
<tspan x="0" y="96" opacity="0"><animate attributeName="opacity" to="1" begin="1.3s" dur="0.3s" fill="freeze"/> %@@@#   :#@@@@@@@@@@#:   #@@@%</tspan>
<tspan x="0" y="112" opacity="0"><animate attributeName="opacity" to="1" begin="1.5s" dur="0.3s" fill="freeze"/> @@@@:  +@@@@@@@@@@@@@@+  :@@@@</tspan>
<tspan x="0" y="128" opacity="0"><animate attributeName="opacity" to="1" begin="1.7s" dur="0.3s" fill="freeze"/> @@@@   %@@@%%%%%%%@@@@%   @@@@</tspan>
<tspan x="0" y="144" opacity="0"><animate attributeName="opacity" to="1" begin="1.9s" dur="0.3s" fill="freeze"/> @@@@:  #@@@:       :@@@#  :@@@@</tspan>
<tspan x="0" y="160" opacity="0"><animate attributeName="opacity" to="1" begin="2.1s" dur="0.3s" fill="freeze"/> %@@@#   -+*#%%%%#*+-    #@@@%</tspan>
<tspan x="0" y="176" opacity="0"><animate attributeName="opacity" to="1" begin="2.3s" dur="0.3s" fill="freeze"/> =@@@@=                 =@@@@=</tspan>
<tspan x="0" y="192" opacity="0"><animate attributeName="opacity" to="1" begin="2.5s" dur="0.3s" fill="freeze"/>  *@@@@#-             -#@@@@*</tspan>
<tspan x="0" y="208" opacity="0"><animate attributeName="opacity" to="1" begin="2.7s" dur="0.3s" fill="freeze"/>   +@@@@@@#*+=====+*#@@@@@@+</tspan>
<tspan x="0" y="224" opacity="0"><animate attributeName="opacity" to="1" begin="2.9s" dur="0.3s" fill="freeze"/>    -#@@@@@@@@@@@@@@@@@@@#-</tspan>
<tspan x="0" y="240" opacity="0"><animate attributeName="opacity" to="1" begin="3.1s" dur="0.3s" fill="freeze"/>      :+#@@@@@@@@@@@@#+:</tspan>
<tspan x="0" y="256" opacity="0"><animate attributeName="opacity" to="1" begin="3.3s" dur="0.3s" fill="freeze"/>        .:=+*#%%#*+=:.</tspan>
<tspan x="0" y="272" opacity="0"><animate attributeName="opacity" to="1" begin="3.5s" dur="0.3s" fill="freeze"/>         =@@@@@@@@@@@=</tspan>
<tspan x="0" y="288" opacity="0"><animate attributeName="opacity" to="1" begin="3.7s" dur="0.3s" fill="freeze"/>        +@@@@@@@@@@@@@+</tspan>
<tspan x="0" y="304" opacity="0"><animate attributeName="opacity" to="1" begin="3.9s" dur="0.3s" fill="freeze"/>       #@@@@@@@@@@@@@@@#</tspan>
<tspan x="200" y="330" fill="#22D3EE" opacity="0"><animate attributeName="opacity" to="1" begin="4.1s" dur="0.3s" fill="freeze"/>_<animate attributeName="opacity" values="1;0;1" begin="4.4s" dur="1s" repeatCount="indefinite"/></tspan>
        </text>
      </g>

      <!-- scanline -->
      <rect x="34" y="34" width="428" height="6" fill="url(#accentD)" opacity="0.18">
        <animate attributeName="y" values="34;570;34" dur="5s" repeatCount="indefinite"/>
      </rect>
    </g>

    <text x="60" y="540" class="mono" font-size="12" fill="#94A3B8">root@satyam:~$ <tspan fill="#22D3EE">whoami</tspan></text>
    <text x="60" y="560" class="mono" font-size="12" fill="#F8FAFC" font-weight="600">Satyam Mishra // Engineer</text>
  </g>

  <!-- RIGHT PANEL -->
  <g>
    <rect x="486" y="34" width="660" height="542" rx="20" fill="#0F172A" opacity="0.55"/>
    <rect x="486" y="34" width="660" height="542" rx="20" fill="none" stroke="rgba(255,255,255,.08)" stroke-width="1"/>
    <rect x="486" y="34" width="660" height="542" rx="20" fill="none" stroke="url(#accentD)" stroke-width="1.4" opacity="0.6">
      <animate attributeName="opacity" values="0.25;0.7;0.25" dur="4s" repeatCount="indefinite" begin="0.5s"/>
    </rect>

    <!-- terminal top bar -->
    <circle cx="514" cy="62" r="6" fill="#EF4444" opacity="0.8"/>
    <circle cx="534" cy="62" r="6" fill="#F59E0B" opacity="0.8"/>
    <circle cx="554" cy="62" r="6" fill="#10B981" opacity="0.8"/>
    <text x="1120" y="66" text-anchor="end" class="mono" font-size="11" fill="#475569">satyam.sh</text>
    <line x1="486" y1="86" x2="1146" y2="86" stroke="rgba(255,255,255,.06)" stroke-width="1"/>

    <g clip-path="url(#rightClipD)">
    <text x="514" y="126" class="mono" font-size="26" fill="#F8FAFC" font-weight="700" opacity="0">
      Hi 👋 I'm Satyam
      <animate attributeName="opacity" to="1" begin="0.4s" dur="0.4s" fill="freeze"/>
    </text>

    <!-- typing role cycler -->
    <g font-family="'SF Mono',monospace" font-size="19" font-weight="600" fill="#22D3EE">
      <text x="514" y="166" clip-path="url(#tclip1D)" opacity="0">Frontend Engineer
        <animate attributeName="opacity" to="1" begin="r1.begin" dur="0.01s" fill="freeze"/>
        <animate id="r1" attributeName="opacity" values="1;1;0" keyTimes="0;0.9;1" begin="1s;r6.end" dur="3s" fill="freeze"/>
      </text>
      <text x="514" y="166" opacity="0">Full Stack Developer
        <animate id="r2" attributeName="opacity" values="0;1;1;0" keyTimes="0;0.05;0.9;1" begin="r1.end" dur="3s" fill="freeze"/>
      </text>
      <text x="514" y="166" opacity="0">AI / ML Engineer
        <animate id="r3" attributeName="opacity" values="0;1;1;0" keyTimes="0;0.05;0.9;1" begin="r2.end" dur="3s" fill="freeze"/>
      </text>
      <text x="514" y="166" opacity="0">Cybersecurity Enthusiast
        <animate id="r4" attributeName="opacity" values="0;1;1;0" keyTimes="0;0.05;0.9;1" begin="r3.end" dur="3s" fill="freeze"/>
      </text>
      <text x="514" y="166" opacity="0">Open Source Contributor
        <animate id="r5" attributeName="opacity" values="0;1;1;0" keyTimes="0;0.05;0.9;1" begin="r4.end" dur="3s" fill="freeze"/>
      </text>
      <text x="514" y="166" opacity="0">Product Engineer
        <animate id="r6" attributeName="opacity" values="0;1;1;0" keyTimes="0;0.05;0.9;1" begin="r5.end" dur="3s" fill="freeze"/>
      </text>
      <rect x="514" y="153" width="2" height="18" fill="#22D3EE">
        <animate attributeName="opacity" values="1;0;1" dur="0.9s" repeatCount="indefinite"/>
      </rect>
    </g>

    <!-- info rows -->
    <g class="mono" font-size="13.5">
      <g opacity="0"><animate attributeName="opacity" to="1" begin="1.3s" dur="0.4s" fill="freeze"/>
        <circle cx="519" cy="214" r="3" fill="#7C3AED"/>
        <text x="534" y="219" fill="#94A3B8">Location <tspan fill="#F8FAFC">— Kanpur, Uttar Pradesh, India</tspan></text>
      </g>
      <g opacity="0"><animate attributeName="opacity" to="1" begin="1.6s" dur="0.4s" fill="freeze"/>
        <circle cx="519" cy="242" r="3" fill="#22D3EE"/>
        <text x="534" y="247" fill="#94A3B8">Education <tspan fill="#F8FAFC">— B.Tech CSE, PSIT Kanpur</tspan></text>
      </g>
      <g opacity="0"><animate attributeName="opacity" to="1" begin="1.9s" dur="0.4s" fill="freeze"/>
        <circle cx="519" cy="270" r="3" fill="#10B981"/>
        <text x="534" y="275" fill="#94A3B8">Current Focus <tspan fill="#F8FAFC">— AI, Full Stack &amp; Security Engineering</tspan></text>
      </g>
      <g opacity="0"><animate attributeName="opacity" to="1" begin="2.2s" dur="0.4s" fill="freeze"/>
        <circle cx="519" cy="298" r="3" fill="#A855F7"/>
        <text x="534" y="303" fill="#94A3B8">Portfolio <tspan fill="#F8FAFC">— satyam07portfolio.vercel.app</tspan></text>
      </g>
      <g opacity="0"><animate attributeName="opacity" to="1" begin="2.5s" dur="0.4s" fill="freeze"/>
        <circle cx="519" cy="326" r="3" fill="#22D3EE"/>
        <text x="534" y="331" fill="#94A3B8">Email <tspan fill="#F8FAFC">— xatyammishra07@gmail.com</tspan></text>
      </g>
    </g>

    <line x1="514" y1="356" x2="1120" y2="356" stroke="rgba(255,255,255,.06)" stroke-width="1"/>

    <!-- skill pills -->
    <g class="mono" font-size="12" font-weight="600" opacity="0">
      <animate attributeName="opacity" to="1" begin="2.8s" dur="0.5s" fill="freeze"/>
      <!-- row1 -->
      <g class="pill"><rect x="514" y="378" width="62" height="27" rx="13.5" fill="rgba(124,58,237,.15)" stroke="#7C3AED"/><text x="545" y="395.5" text-anchor="middle" fill="#E9D5FF">React</text></g>
      <g class="pill"><rect x="584" y="378" width="70" height="27" rx="13.5" fill="rgba(34,211,238,.15)" stroke="#22D3EE"/><text x="619" y="395.5" text-anchor="middle" fill="#CFFAFE">Next.js</text></g>
      <g class="pill"><rect x="662" y="378" width="76" height="27" rx="13.5" fill="rgba(16,185,129,.15)" stroke="#10B981"/><text x="700" y="395.5" text-anchor="middle" fill="#D1FAE5">Node.js</text></g>
      <g class="pill"><rect x="746" y="378" width="92" height="27" rx="13.5" fill="rgba(124,58,237,.15)" stroke="#7C3AED"/><text x="792" y="395.5" text-anchor="middle" fill="#E9D5FF">TypeScript</text></g>
      <g class="pill"><rect x="846" y="378" width="80" height="27" rx="13.5" fill="rgba(34,211,238,.15)" stroke="#22D3EE"/><text x="886" y="395.5" text-anchor="middle" fill="#CFFAFE">Tailwind</text></g>
      <g class="pill"><rect x="934" y="378" width="70" height="27" rx="13.5" fill="rgba(16,185,129,.15)" stroke="#10B981"/><text x="969" y="395.5" text-anchor="middle" fill="#D1FAE5">Python</text></g>
      <!-- row2 -->
      <g class="pill"><rect x="514" y="413" width="68" height="27" rx="13.5" fill="rgba(124,58,237,.15)" stroke="#7C3AED"/><text x="548" y="430.5" text-anchor="middle" fill="#E9D5FF">Docker</text></g>
      <g class="pill"><rect x="590" y="413" width="86" height="27" rx="13.5" fill="rgba(34,211,238,.15)" stroke="#22D3EE"/><text x="633" y="430.5" text-anchor="middle" fill="#CFFAFE">Postgres</text></g>
      <g class="pill"><rect x="684" y="413" width="58" height="27" rx="13.5" fill="rgba(16,185,129,.15)" stroke="#10B981"/><text x="713" y="430.5" text-anchor="middle" fill="#D1FAE5">AWS</text></g>
      <g class="pill"><rect x="750" y="413" width="52" height="27" rx="13.5" fill="rgba(124,58,237,.15)" stroke="#7C3AED"/><text x="776" y="430.5" text-anchor="middle" fill="#E9D5FF">Git</text></g>
      <g class="pill"><rect x="810" y="413" width="66" height="27" rx="13.5" fill="rgba(34,211,238,.15)" stroke="#22D3EE"/><text x="843" y="430.5" text-anchor="middle" fill="#CFFAFE">FastAPI</text></g>
      <g class="pill"><rect x="884" y="413" width="66" height="27" rx="13.5" fill="rgba(16,185,129,.15)" stroke="#10B981"/><text x="917" y="430.5" text-anchor="middle" fill="#D1FAE5">Figma</text></g>
    </g>

    <line x1="514" y1="468" x2="1120" y2="468" stroke="rgba(255,255,255,.06)" stroke-width="1"/>

    <!-- social icons -->
    <g opacity="0">
      <animate attributeName="opacity" to="1" begin="3.2s" dur="0.5s" fill="freeze"/>
      <g class="social">
        <circle cx="538" cy="510" r="20" fill="rgba(255,255,255,.05)" stroke="rgba(255,255,255,.12)"/>
        <path d="M538 498a12 12 0 0 0 -3.8 23.4c.6.1.8-.3.8-.6v-2.2c-3.3.7-4-1.6-4-1.6-.5-1.4-1.3-1.8-1.3-1.8-1.1-.7.1-.7.1-.7 1.2.1 1.8 1.2 1.8 1.2 1.1 1.8 2.8 1.3 3.5 1 .1-.8.4-1.3.7-1.6-2.6-.3-5.4-1.3-5.4-5.8 0-1.3.5-2.3 1.2-3.1-.1-.3-.5-1.5.1-3.1 0 0 1-.3 3.3 1.2a11 11 0 0 1 6 0c2.3-1.5 3.3-1.2 3.3-1.2.6 1.6.2 2.8.1 3.1.8.8 1.2 1.9 1.2 3.1 0 4.5-2.8 5.5-5.4 5.8.4.4.8 1.1.8 2.2v3.3c0 .3.2.7.8.6A12 12 0 0 0 538 498z" fill="#F8FAFC" transform="translate(0,-2)"/>
        <animate attributeName="opacity" values="1;0.75;1" dur="3s" repeatCount="indefinite"/>
      </g>
      <g class="social">
        <circle cx="598" cy="510" r="20" fill="rgba(255,255,255,.05)" stroke="rgba(255,255,255,.12)"/>
        <rect x="589" y="504" width="4" height="14" fill="#22D3EE"/><circle cx="591" cy="499" r="2.4" fill="#22D3EE"/>
        <path d="M598 518v-7.5c0-2 1-3 2.6-3s2.4 1 2.4 3v7.5h4v-8.2c0-4-2.1-5.9-5-5.9-2.3 0-3.3 1.3-3.9 2.2v-1.8h-4c.1 1 0 14.2 0 14.2z" fill="#22D3EE"/>
      </g>
      <g class="social">
        <circle cx="658" cy="510" r="20" fill="rgba(255,255,255,.05)" stroke="rgba(255,255,255,.12)"/>
        <path d="M650 501l6.5 8.7-6.5 8.3h2.5l5.3-6.7 4.2 6.7h5l-6.9-9.4 6-7.6h-2.5l-4.9 6.2-3.9-6.2z" fill="#A855F7"/>
      </g>
      <g class="social">
        <circle cx="718" cy="510" r="20" fill="rgba(255,255,255,.05)" stroke="rgba(255,255,255,.12)"/>
        <path d="M709 512l6-9 6 9-6 4z" fill="none" stroke="#10B981" stroke-width="2" stroke-linejoin="round"/>
      </g>
      <text x="756" y="515" class="mono" font-size="12" fill="#475569">github.com/Xatyam07</text>
    </g>
    </g>
  </g>

  <!-- outer border shimmer -->
  <rect x="2" y="2" width="1176" height="606" rx="27" fill="none" stroke="url(#accentD)" stroke-width="1.5" opacity="0.5" stroke-dasharray="60 900">
    <animate attributeName="stroke-dashoffset" values="0;-2400" dur="14s" repeatCount="indefinite"/>
  </rect>
  <rect x="0.5" y="0.5" width="1179" height="609" rx="28" fill="none" stroke="rgba(255,255,255,.06)" stroke-width="1"/>
</g>
</svg>
